<?xml version="1.0" encoding="utf-8"?>
<!-- Generator: Adobe Illustrator 24.1.2, SVG Export Plug-In . SVG Version: 6.00 Build 0)  -->
<svg version="1.1" id="Layer_1" xmlns="http://www.w3.org/2000/svg" xmlns:xlink="http://www.w3.org/1999/xlink" x="0px" y="0px"
	 viewBox="0 0 54 54" style="enable-background:new 0 0 54 54;" xml:space="preserve">
<style type="text/css">
	.st0{fill:none;stroke:#E5261F;stroke-width:4;}
	.st1{fill:#E5261F;}
</style>
<g id="Page-1">
	<g id="logo-mobile">
		<rect id="Rectangle-6" x="2" y="2" class="st0" width="50" height="50"/>
	</g>
</g>
<g id="Page-1_1_">
	<g>
		<g>
			<path class="st1" d="M26.2,9.3c3.4,0,6.4,0.7,8.9,2.1s4.5,3.4,5.9,5.9c1.4,2.6,2.1,5.7,2.1,9.4c0,3.6-0.7,6.7-2.2,9.4
				c-1.4,2.7-3.4,4.8-6,6.3c-2.6,1.5-5.5,2.3-8.8,2.3c-3.4,0-6.4-0.7-8.9-2.1s-4.5-3.4-5.9-6s-2.1-5.7-2.1-9.4
				c0-3.6,0.7-6.7,2.2-9.4c1.5-2.7,3.5-4.8,6-6.3C19.9,10,22.8,9.3,26.2,9.3z M26,10.1c-1.8,0-3.4,0.7-4.7,2.2
				c-1.3,1.4-2.4,3.4-3.1,6c-0.7,2.5-1.1,5.5-1.1,8.8c0,3.4,0.4,6.3,1.2,8.9c0.8,2.5,1.9,4.4,3.3,5.8c1.4,1.4,2.9,2,4.6,2
				c1.8,0,3.4-0.7,4.7-2.2c1.3-1.4,2.4-3.4,3.1-6c0.7-2.5,1.1-5.5,1.1-8.8c0-3.4-0.4-6.4-1.2-8.9c-0.8-2.5-1.9-4.4-3.3-5.8
				C29.2,10.8,27.7,10.1,26,10.1z"/>
		</g>
	</g>
</g>
</svg>
