<?xml version="1.0" encoding="utf-8"?>
<!-- Generator: Adobe Illustrator 24.1.2, SVG Export Plug-In . SVG Version: 6.00 Build 0)  -->
<svg version="1.1" id="Layer_1" xmlns="http://www.w3.org/2000/svg" xmlns:xlink="http://www.w3.org/1999/xlink" x="0px" y="0px"
	 viewBox="0 0 281 64" style="enable-background:new 0 0 281 64;" xml:space="preserve">
<style type="text/css">
	.st0{fill:#E5261F;}
	.st1{fill:#2F2F41;}
</style>
<g id="Page-1">
	<g>
		<g>
			<path class="st0" d="M27.3,11c4.2,0,8,0.9,11.1,2.6c3.2,1.7,5.6,4.2,7.4,7.4c1.8,3.2,2.6,7.1,2.6,11.7c0,4.5-0.9,8.4-2.7,11.8
				c-1.8,3.4-4.3,6-7.5,7.9c-3.2,1.9-6.9,2.8-11,2.8c-4.2,0-7.9-0.9-11.1-2.6c-3.2-1.7-5.7-4.2-7.4-7.4C6.9,41.9,6,38,6,33.4
				C6,29,6.9,25,8.7,21.7c1.8-3.4,4.3-6,7.5-7.9C19.4,11.9,23.1,11,27.3,11z M27,12.1c-2.2,0-4.2,0.9-5.9,2.7
				c-1.7,1.8-2.9,4.3-3.8,7.4S16,29,16,33.2c0,4.2,0.5,7.9,1.5,11.1c1,3.1,2.4,5.6,4.1,7.3c1.7,1.7,3.7,2.5,5.8,2.5
				c2.2,0,4.2-0.9,5.9-2.7c1.7-1.8,2.9-4.3,3.8-7.5s1.4-6.8,1.4-11c0-4.3-0.5-8-1.5-11.1c-1-3.1-2.4-5.5-4.1-7.2
				C31.1,12.9,29.1,12.1,27,12.1z"/>
			<path class="st0" d="M65.3,7.3v41.4c0,1.7,0.3,2.8,0.9,3.4c0.6,0.6,1.6,0.9,3,0.9v1.3c-0.8,0-1.9-0.1-3.4-0.2
				c-1.5-0.1-3.1-0.1-4.6-0.1s-3.1,0-4.7,0.1c-1.6,0.1-2.8,0.1-3.6,0.2v-1.3c1.4,0,2.4-0.3,3-0.9c0.6-0.6,0.9-1.7,0.9-3.4V14.5
				c0-1.8-0.3-3.1-0.8-4s-1.6-1.3-3-1.3V8c1.3,0.1,2.5,0.2,3.7,0.2c1.6,0,3.2-0.1,4.7-0.2C62.7,7.8,64.1,7.6,65.3,7.3z"/>
			<path class="st0" d="M87.8,22.5c2.9,0,5.5,0.5,7.7,1.6c2.2,1.1,3.9,2.8,5.2,5.2c1.2,2.4,1.9,5.6,1.9,9.5c0,4-0.6,7.1-1.9,9.5
				c-1.2,2.4-3,4.1-5.2,5.2c-2.2,1.1-4.8,1.6-7.7,1.6c-2.8,0-5.4-0.5-7.6-1.6c-2.2-1.1-4-2.8-5.2-5.2c-1.3-2.4-1.9-5.5-1.9-9.5
				c0-4,0.6-7.1,1.9-9.5c1.3-2.4,3-4.1,5.2-5.2C82.4,23,85,22.5,87.8,22.5z M87.8,23.7c-1.6,0-2.9,1.2-4,3.6s-1.6,6.3-1.6,11.6
				c0,5.4,0.5,9.2,1.6,11.6c1.1,2.4,2.4,3.5,4,3.5c1.6,0,3-1.2,4.1-3.5c1.1-2.4,1.6-6.2,1.6-11.6c0-5.4-0.5-9.2-1.6-11.6
				C90.8,24.8,89.4,23.7,87.8,23.7z"/>
			<path class="st0" d="M127.5,22.5c1.3,0,2.3,0.3,3.1,0.8c0.8,0.5,1.4,1.2,1.8,2.1c0.4,0.8,0.6,1.7,0.6,2.6c0,1.5-0.4,2.7-1.3,3.6
				c-0.9,0.9-2,1.4-3.4,1.4c-1.4,0-2.5-0.3-3.3-1c-0.8-0.7-1.2-1.6-1.2-2.8c0-1.1,0.3-2,0.8-2.8s1.1-1.4,1.9-1.9
				c-0.6-0.2-1.1-0.1-1.7,0.1c-1,0.2-2,0.7-2.8,1.5c-0.8,0.8-1.5,1.8-1.9,2.9c-0.5,1.1-0.7,2.2-0.7,3.3v15.9c0,1.9,0.5,3.2,1.4,3.9
				c0.9,0.7,2.3,1,4.2,1v1.3c-0.9,0-2.3-0.1-4-0.2c-1.8-0.1-3.6-0.1-5.5-0.1c-1.6,0-3.2,0-4.9,0.1c-1.6,0.1-2.9,0.1-3.7,0.2v-1.3
				c1.4,0,2.4-0.3,3-0.9c0.6-0.6,0.9-1.7,0.9-3.4V29.8c0-1.8-0.3-3.1-0.8-4c-0.5-0.9-1.6-1.3-3-1.3v-1.3c1.3,0.1,2.5,0.2,3.7,0.2
				c1.7,0,3.2-0.1,4.7-0.2c1.5-0.1,2.8-0.3,4-0.6v5.6c0.5-1.1,1.1-2.1,1.9-2.9c0.8-0.9,1.7-1.6,2.8-2.1
				C125,22.7,126.2,22.5,127.5,22.5z"/>
			<path class="st0" d="M150.9,22.5c3.5,0,6.3,1,8.3,3.1c2,2.1,3,5.5,3,10.2h-19.7l-0.1-1.1h12.3c0-2-0.1-3.8-0.4-5.4
				c-0.3-1.7-0.7-3-1.3-4s-1.4-1.5-2.4-1.5c-1.4,0-2.6,0.9-3.6,2.6c-1,1.8-1.6,4.7-1.8,8.8l0.2,0.4c0,0.5-0.1,1-0.1,1.5
				c0,0.5,0,1.1,0,1.6c0,2.8,0.4,5,1.2,6.7c0.8,1.7,1.8,3,3,3.8s2.4,1.2,3.7,1.2c1.2,0,2.5-0.3,3.9-0.9c1.4-0.6,2.8-1.9,4-3.9
				l1.1,0.4c-0.5,1.5-1.2,3-2.3,4.4c-1,1.4-2.4,2.6-4,3.5c-1.6,0.9-3.5,1.4-5.8,1.4c-2.7,0-5.1-0.6-7.2-1.7
				c-2.1-1.2-3.7-2.9-4.9-5.3c-1.2-2.4-1.8-5.4-1.8-9c0-3.7,0.6-6.8,1.9-9.3c1.3-2.5,3-4.3,5.2-5.5
				C145.5,23.1,148.1,22.5,150.9,22.5z"/>
			<path class="st0" d="M188.6,22.5c1.7,0,3,0.2,4.1,0.6c1.1,0.4,1.9,1,2.5,1.7c0.6,0.8,1.1,1.7,1.4,2.9c0.3,1.2,0.5,2.8,0.5,4.9
				v16.1c0,1.7,0.3,2.8,0.9,3.4c0.6,0.6,1.6,0.9,3,0.9v1.3c-0.8,0-1.9-0.1-3.4-0.2c-1.5-0.1-3-0.1-4.5-0.1c-1.5,0-3,0-4.5,0.1
				c-1.5,0.1-2.6,0.1-3.3,0.2v-1.3c1.2,0,2-0.3,2.5-0.9c0.5-0.6,0.7-1.7,0.7-3.4V30.1c0-1-0.1-1.9-0.3-2.6c-0.2-0.7-0.6-1.3-1.1-1.7
				c-0.5-0.4-1.3-0.6-2.3-0.6c-1.7,0-3.1,0.7-4.2,2c-1.1,1.3-1.7,3-1.7,5v16.7c0,1.7,0.2,2.8,0.8,3.4c0.5,0.6,1.3,0.9,2.5,0.9v1.3
				c-0.7,0-1.8-0.1-3.2-0.2c-1.4-0.1-2.8-0.1-4.3-0.1c-1.5,0-3.1,0-4.7,0.1c-1.6,0.1-2.8,0.1-3.6,0.2v-1.3c1.4,0,2.4-0.3,3-0.9
				c0.6-0.6,0.9-1.7,0.9-3.4V29.8c0-1.8-0.3-3.1-0.8-4s-1.6-1.3-3-1.3v-1.3c1.3,0.1,2.5,0.2,3.7,0.2c1.7,0,3.2-0.1,4.7-0.2
				c1.5-0.1,2.8-0.3,4-0.6V28c1-2,2.4-3.5,4.1-4.3C184.6,22.9,186.5,22.5,188.6,22.5z"/>
			<path class="st1" d="M238.9,11.7l14.6,37.6c0.6,1.4,1.2,2.4,1.9,3c0.7,0.5,1.3,0.8,1.9,0.9v1.2c-1.2-0.1-2.6-0.1-4.2-0.2
				c-1.6,0-3.3,0-4.9,0c-1.8,0-3.6,0-5.2,0c-1.6,0-2.9,0.1-3.9,0.2v-1.2c2-0.1,3.3-0.4,3.9-1c0.5-0.6,0.4-2-0.4-4l-10.2-27.9
				l1.1-1.6l-9.1,23.8c-1.1,3-1.7,5.2-1.7,6.7c0,1.5,0.5,2.5,1.5,3.1s2.2,0.9,3.8,0.9v1.2c-1.3-0.1-2.6-0.1-3.8-0.2
				c-1.2,0-2.4,0-3.7,0c-0.9,0-1.7,0-2.5,0c-0.8,0-1.5,0.1-2.1,0.2v-1.2c0.8-0.2,1.7-0.7,2.6-1.6c0.9-0.9,1.7-2.5,2.6-4.7l13.7-35.1
				c0.6,0,1.3,0.1,2.1,0.1S238.3,11.8,238.9,11.7z M243.1,37v1.2h-17.9l0.6-1.2H243.1z"/>
			<path class="st1" d="M278,11.8V13c-1.3,0-2.3,0.2-2.9,0.5c-0.7,0.3-1.1,0.7-1.3,1.4s-0.3,1.8-0.3,3.3V48c0,1.4,0.1,2.5,0.3,3.2
				c0.2,0.7,0.7,1.2,1.3,1.4c0.7,0.2,1.6,0.4,2.8,0.5v1.2c-1.1-0.1-2.4-0.1-4.1-0.2c-1.6,0-3.3,0-5,0c-1.9,0-3.7,0-5.4,0
				c-1.7,0-3,0.1-4.1,0.2v-1.2c1.3-0.1,2.2-0.2,2.9-0.5c0.6-0.2,1.1-0.7,1.3-1.4c0.2-0.7,0.3-1.8,0.3-3.2V18.2
				c0-1.5-0.1-2.6-0.3-3.3c-0.2-0.7-0.7-1.2-1.3-1.4c-0.7-0.3-1.6-0.4-2.8-0.5v-1.2c1,0,2.4,0.1,4.1,0.1c1.7,0,3.5,0.1,5.4,0.1
				c1.7,0,3.3,0,5-0.1C275.6,11.9,277,11.9,278,11.8z"/>
		</g>
	</g>
</g>
</svg>
