<svg width="23" height="21" viewBox="0 0 23 21" fill="none" xmlns="http://www.w3.org/2000/svg">
<path d="M11.5 12.2816C12.6322 12.2816 13.55 11.3638 13.55 10.2316C13.55 9.09946 12.6322 8.18164 11.5 8.18164C10.3678 8.18164 9.45001 9.09946 9.45001 10.2316C9.45001 11.3638 10.3678 12.2816 11.5 12.2816Z" fill="#0A8EEE"/>
<path d="M11.5 14.4317C17.5751 14.4317 22.5 12.5513 22.5 10.2317C22.5 7.91214 17.5751 6.03174 11.5 6.03174C5.42487 6.03174 0.5 7.91214 0.5 10.2317C0.5 12.5513 5.42487 14.4317 11.5 14.4317Z" stroke="#0A8EEE"/>
<path d="M7.86272 12.3317C10.9003 17.593 14.9912 20.9178 17 19.758C19.0089 18.5982 18.1749 13.393 15.1373 8.13175C12.0998 2.87053 8.00885 -0.454329 6.00002 0.705469C3.99119 1.86527 4.82515 7.07053 7.86272 12.3317Z" stroke="#0A8EEE"/>
<path d="M7.86272 8.13194C4.82515 13.3932 3.99119 18.5984 6.00002 19.7582C8.00885 20.918 12.0998 17.5932 15.1373 12.3319C18.1749 7.07072 19.0089 1.86546 17 0.705664C14.9912 -0.454134 10.9003 2.87072 7.86272 8.13194Z" stroke="#0A8EEE"/>
</svg>