<svg width="145" height="29" viewBox="0 0 145 29" fill="none" xmlns="http://www.w3.org/2000/svg">
<path d="M13.3 28.004C10.924 28.004 8.788 27.464 6.892 26.384C5.02 25.28 3.544 23.744 2.464 21.776C1.408 19.784 0.879995 17.492 0.879995 14.9C0.879995 12.308 1.408 10.028 2.464 8.06C3.544 6.068 5.02 4.532 6.892 3.452C8.788 2.348 10.924 1.796 13.3 1.796C15.676 1.796 17.8 2.348 19.672 3.452C21.568 4.532 23.044 6.068 24.1 8.06C25.18 10.028 25.72 12.308 25.72 14.9C25.72 17.492 25.18 19.784 24.1 21.776C23.044 23.744 21.568 25.28 19.672 26.384C17.8 27.464 15.676 28.004 13.3 28.004ZM13.3 23.54C15.748 23.54 17.62 22.748 18.916 21.164C20.236 19.58 20.896 17.492 20.896 14.9C20.896 12.308 20.236 10.22 18.916 8.636C17.62 7.052 15.748 6.26 13.3 6.26C10.852 6.26 8.968 7.052 7.648 8.636C6.352 10.22 5.704 12.308 5.704 14.9C5.704 17.492 6.352 19.58 7.648 21.164C8.968 22.748 10.852 23.54 13.3 23.54ZM33.4215 27.86C31.8855 27.86 30.7335 27.428 29.9655 26.564C29.1975 25.676 28.8135 24.536 28.8135 23.144V0.499998H33.2775V21.308C33.2775 22.268 33.3255 22.952 33.4215 23.36C33.5415 23.744 33.7335 23.984 33.9975 24.08C34.2855 24.152 34.7655 24.188 35.4375 24.188L35.0415 27.86H33.4215ZM46.2667 27.86C44.3707 27.86 42.7267 27.44 41.3347 26.6C39.9427 25.76 38.8747 24.632 38.1307 23.216C37.3867 21.8 37.0147 20.24 37.0147 18.536C37.0147 16.832 37.3867 15.26 38.1307 13.82C38.8747 12.38 39.9427 11.24 41.3347 10.4C42.7267 9.56 44.3707 9.14 46.2667 9.14C48.1627 9.14 49.8067 9.56 51.1987 10.4C52.5907 11.24 53.6587 12.38 54.4027 13.82C55.1467 15.26 55.5187 16.832 55.5187 18.536C55.5187 20.24 55.1467 21.8 54.4027 23.216C53.6587 24.632 52.5907 25.76 51.1987 26.6C49.8067 27.44 48.1627 27.86 46.2667 27.86ZM46.2667 24.188C47.7307 24.188 48.8707 23.672 49.6867 22.64C50.5267 21.608 50.9467 20.24 50.9467 18.536C50.9467 16.808 50.5267 15.428 49.6867 14.396C48.8707 13.34 47.7307 12.812 46.2667 12.812C44.8027 12.812 43.6507 13.34 42.8107 14.396C41.9947 15.428 41.5867 16.808 41.5867 18.536C41.5867 20.24 41.9947 21.608 42.8107 22.64C43.6507 23.672 44.8027 24.188 46.2667 24.188ZM58.626 9.5H62.802L62.91 11.408C63.438 10.808 64.11 10.28 64.926 9.824C65.766 9.368 66.642 9.14 67.554 9.14C67.842 9.14 68.106 9.164 68.346 9.212L68.022 13.604C67.566 13.484 67.05 13.424 66.474 13.424C65.73 13.424 65.046 13.604 64.422 13.964C63.798 14.3 63.354 14.72 63.09 15.224V27.5H58.626V9.5ZM78.8684 27.86C76.7804 27.86 74.9924 27.44 73.5044 26.6C72.0404 25.736 70.9364 24.596 70.1924 23.18C69.4724 21.74 69.1124 20.144 69.1124 18.392C69.1124 16.712 69.4604 15.176 70.1564 13.784C70.8524 12.392 71.8604 11.288 73.1804 10.472C74.5004 9.632 76.0724 9.212 77.8964 9.212C79.5764 9.212 80.9924 9.56 82.1444 10.256C83.3204 10.952 84.1964 11.888 84.7724 13.064C85.3724 14.24 85.6724 15.56 85.6724 17.024C85.6724 17.744 85.5764 18.56 85.3844 19.472H73.7564C73.9964 21.056 74.6204 22.244 75.6284 23.036C76.6364 23.804 77.8484 24.188 79.2644 24.188C81.2084 24.188 83.0084 23.696 84.6644 22.712L84.8804 26.492C84.1124 26.9 83.2124 27.236 82.1804 27.5C81.1724 27.74 80.0684 27.86 78.8684 27.86ZM81.1364 16.448C81.1364 15.512 80.8724 14.684 80.3444 13.964C79.8164 13.244 79.0004 12.884 77.8964 12.884C76.7924 12.884 75.9044 13.208 75.2324 13.856C74.5604 14.504 74.1044 15.368 73.8644 16.448H81.1364ZM97.7917 9.212C100.024 9.212 101.716 9.956 102.868 11.444C104.02 12.932 104.596 14.936 104.596 17.456V27.5H100.132V17.816C100.132 16.136 99.8437 14.9 99.2677 14.108C98.7157 13.292 97.8157 12.884 96.5677 12.884C95.1997 12.884 94.0717 13.4 93.1837 14.432V27.5H88.7197V9.5H92.8957L92.9677 10.76C94.4797 9.728 96.0877 9.212 97.7917 9.212Z" fill="white"/>
<path d="M130.421 21.524H121.241L119.153 27.5H114.689L123.653 2.3H128.009L136.973 27.5H132.509L130.421 21.524ZM128.981 17.492L125.849 8.492L122.681 17.492H128.981ZM139.853 2.3H144.461V27.5H139.853V2.3Z" fill="url(#paint0_linear_1_62)"/>
<defs>
<linearGradient id="paint0_linear_1_62" x1="73.62" y1="2.5" x2="73.62" y2="26.5" gradientUnits="userSpaceOnUse">
<stop stop-color="#84C7F7"/>
<stop offset="1" stop-color="#B4A1EB"/>
</linearGradient>
</defs>
</svg>
