<?xml version="1.0" encoding="utf-8"?>
<!-- Generator: Adobe Illustrator 26.0.1, SVG Export Plug-In . SVG Version: 6.00 Build 0)  -->
<svg version="1.1" id="Layer_1" xmlns="http://www.w3.org/2000/svg" xmlns:xlink="http://www.w3.org/1999/xlink" x="0px" y="0px"
	 viewBox="0 0 245.9 29" style="enable-background:new 0 0 245.9 29;" xml:space="preserve">
<style type="text/css">
	.st0{fill:#FFFFFF;}
	.st1{fill:url(#SVGID_1_);}
	.st2{font-family:'Cabin-Bold';}
	.st3{font-size:36px;}
</style>
<path class="st0" d="M13.3,28c-2.4,0-4.5-0.5-6.4-1.6s-3.3-2.6-4.4-4.6s-1.6-4.3-1.6-6.9S1.4,10,2.5,8.1c1.1-2,2.6-3.5,4.4-4.6
	c1.9-1.1,4-1.7,6.4-1.7s4.5,0.6,6.4,1.7c1.9,1.1,3.4,2.6,4.4,4.6c1.1,2,1.6,4.2,1.6,6.8s-0.5,4.9-1.6,6.9s-2.5,3.5-4.4,4.6
	C17.8,27.5,15.7,28,13.3,28z M13.3,23.5c2.4,0,4.3-0.8,5.6-2.4s2-3.7,2-6.3s-0.7-4.7-2-6.3s-3.2-2.4-5.6-2.4S9,7.1,7.6,8.6
	c-1.3,1.6-1.9,3.7-1.9,6.3s0.6,4.7,1.9,6.3C9,22.7,10.9,23.5,13.3,23.5z M33.4,27.9c-1.5,0-2.7-0.4-3.5-1.3s-1.2-2-1.2-3.4V0.5h4.5
	v20.8c0,1,0,1.6,0.1,2.1c0.1,0.4,0.3,0.6,0.6,0.7s0.8,0.1,1.4,0.1L35,27.9H33.4z M46.3,27.9c-1.9,0-3.5-0.4-4.9-1.3
	c-1.4-0.8-2.5-2-3.2-3.4s-1.1-3-1.1-4.7s0.4-3.3,1.1-4.7s1.8-2.6,3.2-3.4c1.4-0.8,3-1.3,4.9-1.3s3.5,0.4,4.9,1.3
	c1.4,0.8,2.5,2,3.2,3.4s1.1,3,1.1,4.7s-0.4,3.3-1.1,4.7c-0.7,1.4-1.8,2.5-3.2,3.4S48.2,27.9,46.3,27.9z M46.3,24.2
	c1.5,0,2.6-0.5,3.4-1.5c0.8-1,1.3-2.4,1.3-4.1s-0.4-3.1-1.3-4.1c-0.8-1.1-2-1.6-3.4-1.6s-2.6,0.5-3.5,1.6c-0.8,1-1.2,2.4-1.2,4.1
	s0.4,3.1,1.2,4.1C43.7,23.7,44.8,24.2,46.3,24.2z M58.6,9.5h4.2l0.1,1.9c0.5-0.6,1.2-1.1,2-1.6c0.8-0.5,1.7-0.7,2.6-0.7
	c0.3,0,0.6,0,0.8,0.1L68,13.6c-0.5-0.1-1-0.2-1.5-0.2c-0.7,0-1.4,0.2-2.1,0.5c-0.6,0.3-1.1,0.8-1.3,1.3v12.3h-4.5
	C58.6,27.5,58.6,9.5,58.6,9.5z M78.9,27.9c-2.1,0-3.9-0.4-5.4-1.3s-2.6-2-3.3-3.4c-0.7-1.4-1.1-3-1.1-4.8c0-1.7,0.3-3.2,1-4.6
	s1.7-2.5,3-3.3s2.9-1.3,4.7-1.3c1.7,0,3.1,0.3,4.2,1c1.2,0.7,2.1,1.6,2.6,2.8c0.6,1.2,0.9,2.5,0.9,4c0,0.7-0.1,1.5-0.3,2.4H73.8
	c0.2,1.6,0.9,2.8,1.9,3.6c1,0.8,2.2,1.2,3.6,1.2c1.9,0,3.7-0.5,5.4-1.5l0.2,3.8c-0.8,0.4-1.7,0.7-2.7,1
	C81.2,27.7,80.1,27.9,78.9,27.9z M81.1,16.4c0-0.9-0.3-1.8-0.8-2.5s-1.3-1.1-2.4-1.1s-2,0.3-2.7,1c-0.7,0.6-1.1,1.5-1.4,2.6H81.1z
	 M97.8,9.2c2.2,0,3.9,0.7,5.1,2.2s1.7,3.5,1.7,6v10h-4.5v-9.7c0-1.7-0.3-2.9-0.9-3.7s-1.5-1.2-2.7-1.2c-1.4,0-2.5,0.5-3.4,1.5v13.1
	h-4.5v-18h4.2l0.1,1.3C94.5,9.7,96.1,9.2,97.8,9.2z"/>
<linearGradient id="SVGID_1_" gradientUnits="userSpaceOnUse" x1="129.55" y1="764.8486" x2="129.55" y2="788.8486" gradientTransform="matrix(1 0 0 1 0 -762.3486)">
	<stop  offset="0" style="stop-color:#84C7F7"/>
	<stop  offset="1" style="stop-color:#B4A1EB"/>
</linearGradient>
<path class="st1" d="M130.4,21.5h-9.2l-2.1,6h-4.5l9-25.2h4.4l9,25.2h-4.5L130.4,21.5z M129,17.5l-3.1-9l-3.2,9H129z M139.9,2.3h4.6
	v25.2h-4.6V2.3z"/>
<text transform="matrix(1 0 0 1 151.7323 27.5065)" class="st0 st2 st3">BLOGS</text>
</svg>
